<svg width="828" height="202" viewBox="0 0 828 202" fill="none" xmlns="http://www.w3.org/2000/svg">
<path d="M37.7689 1.31088C46.7084 0.41207 56.7292 2.34423 63.733 8.78843L64.0639 9.09847L64.1611 9.19153L64.2556 9.28676L80.59 25.9473L72.9457 43.4119L51.7618 21.9489C49.6518 19.9851 45.2988 18.4544 39.5409 19.0333C33.8951 19.601 28.4878 22.084 25.0354 25.9473C17.4814 34.4002 17.6456 45.7551 22.5991 51.0081L80.59 111.731L75.6006 130.232L9.87851 63.4398L9.82517 63.3855L9.77313 63.3307C-3.45181 49.4233 0.0135019 27.2573 11.8066 14.0609C18.719 6.32584 28.521 2.24074 37.7689 1.31088Z" fill="#010101" stroke="#EAEAEA" stroke-width="2.2022"/>
<path d="M1.308 147.1C0.411629 138.136 2.33854 128.088 8.76522 121.065L9.07442 120.733L9.16723 120.636L9.2622 120.541L25.8775 104.162L43.2946 111.827L21.8899 133.069C19.9314 135.185 18.4049 139.549 18.9823 145.323C19.5484 150.984 22.0247 156.406 25.8775 159.868C34.3073 167.443 45.6314 167.278 50.8702 162.311L111.428 104.162L129.878 109.165L63.2681 175.066L63.2139 175.12L63.1592 175.172C49.2896 188.433 27.1839 184.958 14.0234 173.133C6.30932 166.202 2.23533 156.373 1.308 147.1Z" fill="#010101" stroke="#EAEAEA" stroke-width="2.2022"/>
<path d="M181.186 37.6753C182.082 46.6392 180.155 56.6873 173.728 63.7102L173.419 64.042L173.326 64.1394L173.231 64.2342L156.616 80.6132L139.199 72.948L160.604 51.7064C162.562 49.5906 164.089 45.2257 163.511 39.4521C162.945 33.7909 160.469 28.3689 156.616 24.9071C148.186 17.3326 136.862 17.4972 131.623 22.4641L71.0652 80.6132L52.6152 75.6101L119.225 9.7089L119.28 9.65542L119.334 9.60324C133.204 -3.65774 155.31 -0.182987 168.47 11.6422C176.184 18.5735 180.258 28.4022 181.186 37.6753Z" fill="#010101" stroke="#EAEAEA" stroke-width="2.2022"/>
<path d="M144.724 183.328C135.784 184.227 125.763 182.295 118.76 175.851L118.429 175.541L118.331 175.448L118.237 175.352L101.903 158.692L109.547 141.227L130.731 162.69C132.841 164.654 137.194 166.185 142.952 165.606C148.597 165.038 154.005 162.555 157.457 158.692C165.011 150.239 164.847 138.884 159.893 133.631L101.903 72.9078L106.892 54.4076L172.614 121.199L172.667 121.254L172.719 121.308C185.944 135.216 182.479 157.382 170.686 170.578C163.774 178.313 153.972 182.398 144.724 183.328Z" fill="#010101" stroke="#EAEAEA" stroke-width="2.2022"/>
<path d="M777.449 164.189C752.312 164.189 732.976 144.325 732.976 117.255C732.976 90.0082 752.84 70.1447 779.91 70.1447C807.157 70.1447 827.196 90.0082 827.196 117.079V201.103H805.223V151.357C799.247 159.443 788.7 164.189 777.449 164.189ZM804.872 117.255C804.872 102.489 794.325 91.5902 779.91 91.5902C765.672 91.5902 755.301 102.489 755.301 117.255C755.301 132.02 765.672 142.919 779.91 142.919C794.325 142.919 804.872 132.02 804.872 117.255Z" fill="#010101"/>
<path d="M639.504 113.563C639.504 85.9651 657.961 70.1447 683.274 70.1447C708.411 70.1447 727.044 85.9651 727.044 113.563V162.431H705.071V114.09C705.071 99.5005 695.755 91.5902 683.274 91.5902C670.793 91.5902 661.477 99.5005 661.477 114.09V162.431H639.504V113.563Z" fill="#010101"/>
<path d="M615.607 53.7966C607.697 53.7966 601.369 47.2926 601.369 39.5581C601.369 31.8237 607.697 25.3197 615.607 25.3197C623.342 25.3197 629.67 31.8237 629.67 39.5581C629.67 47.2926 623.342 53.7966 615.607 53.7966ZM604.533 71.9022H626.506V162.431H604.533V71.9022Z" fill="#010101"/>
<path d="M566.925 25.3197H588.898V162.431H566.925V25.3197Z" fill="#010101"/>
<path d="M513.079 164.189C502.005 164.189 490.755 159.443 484.778 151.357V201.103H462.805V117.255C462.805 90.1839 483.372 70.1447 510.618 70.1447C537.865 70.1447 558.255 90.0082 558.255 117.255C558.255 144.325 538.392 164.189 513.079 164.189ZM485.13 117.255C485.13 131.845 496.204 142.919 510.618 142.919C524.857 142.919 535.931 131.845 535.931 117.255C535.931 102.665 524.857 91.5902 510.618 91.5902C496.204 91.5902 485.13 102.665 485.13 117.255Z" fill="#010101"/>
<path d="M410.259 164.189C382.836 164.189 362.797 144.853 362.797 117.255C362.797 89.6566 382.836 70.1447 410.259 70.1447C437.857 70.1447 457.72 89.6566 457.72 117.255C457.72 144.853 437.857 164.189 410.259 164.189ZM410.259 142.919C425.2 142.919 435.396 132.02 435.396 117.255C435.396 102.313 425.2 91.5902 410.259 91.5902C395.493 91.5902 385.122 102.313 385.122 117.255C385.122 132.02 395.493 142.919 410.259 142.919Z" fill="#010101"/>
<path d="M313.941 164.189C286.519 164.189 266.48 144.853 266.48 117.255C266.48 89.6566 286.519 70.1447 313.941 70.1447C341.539 70.1447 361.403 89.6566 361.403 117.255C361.403 144.853 341.539 164.189 313.941 164.189ZM313.941 142.919C328.883 142.919 339.078 132.02 339.078 117.255C339.078 102.313 328.883 91.5902 313.941 91.5902C299.176 91.5902 288.804 102.313 288.804 117.255C288.804 132.02 299.176 142.919 313.941 142.919Z" fill="#010101"/>
<path d="M235.903 25.3197H257.876V162.431H235.903V25.3197Z" fill="#010101"/>
</svg>
